HIERARCHY
ROOT Hips
{
	OFFSET -3.958830 18.904000 13.208200
	CHANNELS 6 Xposition Yposition Zposition Zrotation Yrotation Xrotation 
	JOINT LHipJoint
	{
		OFFSET 0.000000 0.000000 0.000000
		CHANNELS 3 Zrotation Yrotation Xrotation
		JOINT LeftUpLeg
		{
			OFFSET 1.800000 -1.400000 0.085000
			CHANNELS 3 Zrotation Yrotation Xrotation
			JOINT LeftLeg
			{
				OFFSET 2.215000 -6.000000 0.000000
				CHANNELS 3 Zrotation Yrotation Xrotation
				JOINT LeftFoot
				{
					OFFSET 2.500000 -6.900000 0.000000
					CHANNELS 3 Zrotation Yrotation Xrotation
					JOINT LeftToeBase
					{
						OFFSET 0.200000 -0.500000 1.950000
						CHANNELS 3 Zrotation Yrotation Xrotation
						End Site
						{
							OFFSET 0.000000 0.000000 0.000000
						}
					}
				}
			}
		}
	}
	JOINT RHipJoint
	{
		OFFSET 0.000000 0.000000 0.000000
		CHANNELS 3 Zrotation Yrotation Xrotation
		JOINT RightUpLeg
		{
			OFFSET -1.800000 -1.400000 0.085000
			CHANNELS 3 Zrotation Yrotation Xrotation
			JOINT RightLeg
			{
				OFFSET -2.215000 -6.000000 0.000000
				CHANNELS 3 Zrotation Yrotation Xrotation
				JOINT RightFoot
				{
					OFFSET -2.500000 -6.900000 0.000000
					CHANNELS 3 Zrotation Yrotation Xrotation
					JOINT RightToeBase
					{
						OFFSET -0.200000 -0.500000 1.950000
						CHANNELS 3 Zrotation Yrotation Xrotation
						End Site
						{
							OFFSET 0.000000 0.000000 0.000000
						}
					}
				}
			}
		}
	}
	JOINT LowerBack
	{
		OFFSET 0.000000 0.000000 0.000000
		CHANNELS 3 Zrotation Yrotation Xrotation
		JOINT Spine
		{
			OFFSET -0.087000 1.940000 -0.288900
			CHANNELS 3 Zrotation Yrotation Xrotation
			JOINT Spine1
			{
				OFFSET 0.000000 1.950000 0.060000
				CHANNELS 3 Zrotation Yrotation Xrotation
				JOINT Neck
				{
					OFFSET 0.000000 0.000000 0.000000
					CHANNELS 3 Zrotation Yrotation Xrotation
					JOINT Neck1
					{
						OFFSET 0.000000 1.600000 0.340000
						CHANNELS 3 Zrotation Yrotation Xrotation
						JOINT Head
						{
							OFFSET 0.000000 1.667000 -0.240000
							CHANNELS 3 Zrotation Yrotation Xrotation
							End Site
							{
								OFFSET 0.000000 0.000000 0.000000
							}
						}
					}
				}
				JOINT LeftShoulder
				{
					OFFSET 0.000000 0.000000 0.000000
					CHANNELS 3 Zrotation Yrotation Xrotation
					JOINT LeftArm
					{
						OFFSET 2.700000 1.550000 -0.730000
						CHANNELS 3 Zrotation Yrotation Xrotation
						JOINT LeftForeArm
						{
							OFFSET 5.450000 0.000000 0.000000
							CHANNELS 3 Zrotation Yrotation Xrotation
							JOINT LeftHand
							{
								OFFSET 3.450000 0.000000 0.000000
								CHANNELS 3 Zrotation Yrotation Xrotation
								JOINT LeftHandIndex1
								{
									OFFSET 0.750000 0.000000 0.000000
									CHANNELS 3 Zrotation Yrotation Xrotation
									End Site
									{
										OFFSET 0.000000 0.000000 0.000000
									}
								}
							}
						}
					}
				}
				JOINT RightShoulder
				{
					OFFSET 0.000000 0.000000 0.000000
					CHANNELS 3 Zrotation Yrotation Xrotation
					JOINT RightArm
					{
						OFFSET -2.700000 1.550000 -0.730000
						CHANNELS 3 Zrotation Yrotation Xrotation
						JOINT RightForeArm
						{
							OFFSET -5.450000 0.000000 0.000000
							CHANNELS 3 Zrotation Yrotation Xrotation
							JOINT RightHand
							{
								OFFSET -3.450000 0.000000 0.000000
								CHANNELS 3 Zrotation Yrotation Xrotation
								JOINT RightHandIndex1
								{
									OFFSET -0.750000 0.000000 0.000000
									CHANNELS 3 Zrotation Yrotation Xrotation
									End Site
									{
										OFFSET 0.000000 0.000000 0.000000
									}
								}
							}
						}
					}
				}
			}
		}
	}
}
MOTION
Frames: 14
Frame Time: 0.016667
-4.636460 17.638300 -2.530750 -155.541908 31.421324 177.426158 -15.167573 11.332146 1.676049 17.950702 -0.784743 6.875768 -4.664745 6.058382 6.266143 -0.055176 5.363459 2.884923 0.221230 -0.058480 0.173260 18.728863 -7.468271 7.714484 -29.576513 3.238805 -54.013990 99.704453 -15.508033 7.751864 -2.200587 -8.665319 1.401864 -0.048950 0.114430 0.081560 -4.872119 -0.839203 -9.827163 30.834081 -8.713157 24.591066 -2.552906 -3.799093 12.333818 1.453218 6.630709 -20.935647 13.173136 -24.240595 45.847767 9.500820 -23.658740 -18.013330 -2.203240 -36.565765 12.304121 -14.553924 -1.985504 -12.133209 3.226083 -64.031193 -3.595312 -2.772230 3.167137 0.690280 -0.232530 0.152980 0.093570 -2.125721 34.646241 10.110785 25.669051 33.258088 -15.717387 -10.802956 61.810000 -9.991667 1.617287 -1.190268 -0.198780 0.376790 0.103660 -0.068820 
-4.790800 17.651230 -2.615820 -152.588462 39.738310 -178.295060 -15.121441 11.363821 1.393329 16.801595 -0.470766 6.447737 -2.319881 5.794229 8.937224 -0.117050 5.114361 2.980923 0.234790 0.008090 0.063470 18.781884 -7.755817 7.735250 -31.577211 3.776608 -52.825307 93.719878 -15.431919 9.229034 -2.118945 -8.717064 1.392829 0.002840 0.203870 0.071470 -5.249896 -0.397273 -9.598520 33.456809 -10.062567 24.331933 -4.428170 -4.875132 15.289565 2.178784 5.642199 -19.592135 10.633252 -22.273408 44.986174 12.259680 -23.920390 -19.762140 -1.536823 -35.965713 12.205232 -14.262180 -2.798040 -11.514372 10.718704 -56.158542 -6.289984 -2.837521 3.091515 0.622950 -0.199450 0.099310 0.150910 -3.369426 34.435557 9.049222 23.739651 37.067571 -14.249349 -19.634372 52.385043 -11.585942 1.669711 -1.069744 -0.187610 0.419210 0.117880 0.001120 
-4.878470 17.640020 -2.716170 -147.945193 49.173769 -171.187847 -15.056975 11.591005 1.279824 16.179028 -0.352917 5.039120 -1.482175 5.829032 11.402342 -0.166978 5.087881 3.028727 0.174890 -0.069640 0.027170 18.822554 -7.923852 7.563948 -31.188586 5.888063 -54.085311 85.755868 -18.194787 13.855517 -2.078840 -9.066484 1.288096 -0.020300 0.290650 0.057960 -5.048533 -0.582176 -9.589066 32.980688 -9.776030 25.607042 -3.660786 -4.478108 16.172952 1.870233 5.356376 -20.436702 9.744830 -21.197324 43.630957 11.576130 -23.769110 -18.094950 -2.573809 -36.791223 12.630626 -11.946610 -4.463301 -8.481448 10.979215 -42.475709 -3.974286 -3.001199 2.985898 0.598150 -0.152860 0.047290 0.162290 -1.879119 35.597024 9.148932 20.877986 38.275706 -13.821283 -21.905747 45.071858 -10.459924 1.768739 -1.045278 -0.237400 0.473490 0.146790 0.015070 
-4.943800 17.595520 -2.791980 -140.036094 59.494156 -160.878771 -14.823701 11.871369 1.169957 15.027680 -0.133437 4.099514 -0.226627 5.738392 13.851822 -0.036671 4.881414 3.035309 0.285460 0.072090 0.110180 19.076845 -7.769549 7.549466 -31.696221 8.831790 -57.059367 76.109825 -16.924423 16.959196 -1.990296 -8.831385 1.304117 -0.028510 0.129850 0.137530 -4.576478 -0.796984 -9.727450 31.367655 -9.474576 27.815365 -4.396514 -3.271328 16.578074 1.928223 4.967285 -22.279953 8.556504 -19.499321 44.751050 9.509600 -21.864790 -16.954050 -3.181365 -36.954981 14.011584 -11.501703 -5.083727 -4.505658 13.176469 -25.704091 -2.592263 -3.142684 3.070998 0.553110 -0.206960 0.152270 0.178700 -1.939994 36.404698 10.014456 19.797253 39.706150 -12.565658 -24.910241 37.668338 -9.881199 1.954728 -1.189611 -0.067840 0.287010 0.029310 0.034410 
-5.012390 17.544860 -2.880040 -120.477028 66.352866 -139.267343 -14.554179 12.753706 1.158227 16.853524 -0.307367 0.913767 1.201746 6.005445 17.371146 -0.060233 5.077452 2.905405 0.261860 -0.034750 0.241850 19.301336 -7.102909 7.404980 -31.577086 11.671683 -56.572812 65.350159 -9.969199 13.046249 -1.562599 -7.302251 1.698759 -0.117010 -0.005790 0.139380 -3.629684 -1.348354 -9.894276 31.506807 -9.926788 31.037519 -5.732189 -1.475097 13.072142 2.696786 5.128533 -23.767750 8.618724 -18.331170 46.743113 5.197750 -19.298430 -14.616000 -6.470304 -36.411825 15.154890 -10.926474 -0.041692 -4.362303 12.155304 -24.733431 -2.118518 -3.093969 3.104359 0.643390 -0.262940 0.198980 0.096610 -1.111973 37.196809 9.432808 16.774417 40.473014 -7.212746 -20.010766 27.207778 -5.164833 2.247747 -1.130973 -0.080850 0.191210 0.010980 -0.069710 
-5.046810 17.473990 -3.049980 -97.339991 70.233047 -115.626304 -14.699664 13.512345 1.286012 16.559185 0.159396 1.228138 3.090721 5.870901 18.315532 -0.037420 5.257000 2.865126 0.209270 -0.121930 0.225510 19.101642 -6.683923 7.185268 -31.429242 13.892685 -54.421782 56.220769 -6.241530 10.742529 -1.229247 -6.173764 2.030405 -0.169960 0.009260 0.136870 -3.524562 -1.189906 -9.892709 33.003974 -10.123022 32.957219 -7.896698 0.069262 13.773989 3.495146 3.746532 -25.023015 4.823386 -17.247736 48.216763 4.756110 -19.857560 -14.931600 -7.604569 -35.662026 14.863558 -10.093143 0.394108 -3.545189 11.591584 -21.682284 -1.797684 -3.127268 3.051209 0.677730 -0.278000 0.197990 0.085460 -1.303694 38.717745 10.807413 13.564664 40.507694 -6.308101 -22.279595 16.070499 -4.244234 2.592853 -1.129195 -0.107030 0.213720 0.043600 -0.074430 
-5.035280 17.390730 -3.197030 -75.300472 70.032748 -94.369105 -15.138954 14.124454 1.472846 17.133177 0.400096 2.809035 5.966030 5.416982 18.919048 0.009511 5.388503 2.841217 0.155280 -0.203520 0.208090 18.506181 -6.966839 6.744214 -27.865280 15.428059 -50.317677 43.538185 -3.283537 8.055697 -0.798468 -4.613182 2.529348 -0.228740 0.006500 0.113200 -3.700140 -1.690027 -9.622053 34.233364 -12.024926 36.257890 -10.832381 0.934953 13.467493 4.718644 2.427616 -26.421622 0.833259 -15.894495 49.617415 5.233130 -20.574810 -15.898850 -9.743234 -35.404743 15.115071 -8.011906 1.814170 -2.376964 11.973772 -15.503250 -1.376374 -3.210990 2.977514 0.716510 -0.312800 0.198620 0.065780 -1.400134 40.821273 10.814578 9.235815 38.545340 -5.457781 -19.432621 9.092292 -2.389397 2.895217 -1.003759 -0.129740 0.231970 0.069470 -0.079380 
-5.021820 17.236520 -3.287190 -59.093570 68.686651 -76.881892 -15.405369 14.457381 1.598129 16.626372 0.423866 1.833960 7.818312 4.919287 20.208900 -0.042756 5.369520 2.830980 0.144970 -0.222500 0.162570 18.094051 -7.724194 6.116421 -20.783851 14.922582 -47.989524 26.480046 -1.796401 5.973849 -0.276156 -2.561240 3.227394 -0.221220 0.061110 0.173700 -4.080913 -1.284347 -9.259811 33.104180 -11.078673 35.937341 -10.752193 1.182315 14.301992 4.907509 2.256014 -25.738973 0.995966 -15.768863 47.372164 4.060120 -20.295030 -14.347940 -10.290764 -35.045490 15.240902 -6.800016 1.237429 -1.302898 12.469769 -9.424375 -1.157621 -3.445825 2.944399 0.668390 -0.250160 0.155540 0.070870 -1.089056 40.751848 9.475990 6.322451 36.774469 -2.154130 -13.782777 4.290083 -0.765567 3.107152 -0.860967 -0.115520 0.198690 0.112430 -0.064660 
-4.987520 17.071840 -3.380310 -45.452366 66.287630 -63.110379 -15.563505 14.617395 1.687962 15.615324 0.743161 2.122970 8.911554 4.706841 21.873712 -0.002701 5.436124 2.834055 0.137660 -0.177400 0.059570 17.823627 -8.627955 5.385230 -15.058250 12.295574 -44.177313 11.585542 -1.084568 3.366007 -0.002906 -1.148300 3.804343 -0.191490 0.162260 0.182750 -4.427532 -0.848304 -8.876009 31.771222 -10.318447 36.692166 -10.549092 1.135908 15.225557 4.624474 1.583286 -24.114542 0.252168 -15.803730 44.309504 7.135530 -21.079780 -16.400440 -10.117403 -34.285736 15.326810 -4.396965 -0.188540 0.351913 8.629112 -2.025275 -0.667381 -3.653061 2.717299 0.616170 -0.201150 0.125280 0.127310 -0.294552 39.921476 7.833933 4.391401 33.332276 -2.128353 -11.433566 5.370267 -0.464635 3.008549 -0.816854 -0.107580 0.251680 0.125650 0.004200 
-4.978310 16.912420 -3.508940 -36.665975 61.623770 -55.081603 -15.598589 14.704069 1.712740 15.086627 1.198367 3.334323 9.460061 4.857194 23.988628 0.140182 5.634552 2.763173 0.104830 -0.189150 0.000230 17.736645 -8.873408 5.307371 -20.074451 10.306992 -43.681066 9.308595 -1.172801 3.400039 -0.029823 -1.282351 3.757226 -0.236310 0.152400 0.189520 -4.162847 -1.708734 -8.756978 31.071739 -11.061824 40.978647 -11.051071 1.433165 14.441144 5.197274 0.237590 -24.904175 -2.534678 -15.237405 44.239142 8.106170 -21.718850 -17.189680 -11.387005 -33.705624 15.642807 -3.237662 3.057313 0.296317 9.081545 0.006206 -0.575509 -3.673920 2.722786 0.600940 -0.221270 0.140100 0.134840 0.099767 41.402254 7.235519 1.348845 29.687083 -3.256837 -11.113929 2.823154 -0.263121 3.153539 -0.797863 -0.067370 0.219140 0.126640 0.040750 
-4.921010 16.756670 -3.570110 -34.594473 60.520181 -54.528062 -15.505356 15.171531 1.932128 13.903650 1.761019 3.778826 11.098636 4.596937 26.998960 0.287110 5.815896 2.691981 0.145390 -0.113370 0.044010 17.732372 -9.675809 4.580121 -21.094003 7.882930 -44.721161 -7.908843 -1.784324 27.629213 -0.256270 -2.739339 3.232113 -0.231270 0.082280 0.162690 -3.842098 -2.436007 -8.273281 29.131200 -11.823268 44.303377 -10.721852 -0.377567 13.445431 4.925262 0.574432 -24.615405 -2.202848 -15.656063 43.028433 9.453160 -21.327090 -20.051270 -12.162926 -32.365220 15.487658 -2.300852 5.501562 -0.036112 9.740748 0.680499 -0.511215 -3.632638 2.687030 0.617290 -0.281930 0.203910 0.146500 0.735717 39.181912 8.794187 1.400747 25.300201 -4.867349 -13.603434 3.879003 -0.628888 3.022009 -0.904931 -0.032020 0.210740 0.055430 0.050580 
-4.868370 16.597010 -3.600880 -29.346011 58.950682 -49.147506 -15.524321 15.216097 2.024377 11.059594 1.487612 2.343438 11.319806 4.546359 31.849348 0.358692 6.216256 2.533222 0.142390 -0.123270 0.030620 17.674073 -10.111693 4.087259 -22.195778 4.803516 -42.077475 -16.748998 -0.095928 21.984613 -0.282676 -2.694371 3.245875 -0.230150 0.089740 0.168580 -3.755586 -2.610629 -8.144683 26.129860 -10.915855 44.836758 -9.551553 -0.824630 13.915804 4.672665 -0.117790 -24.498855 -3.047211 -15.322218 41.200466 9.403400 -20.956670 -19.567080 -10.816605 -30.843231 15.093711 -2.876856 6.011666 0.167939 8.505277 2.003219 -0.514790 -3.690571 2.645133 0.605630 -0.272550 0.182910 0.145560 0.014241 37.861239 9.950213 0.061000 21.549280 -3.361252 -11.187465 -2.906673 0.106143 3.208777 -0.787754 -0.033440 0.190040 0.064270 0.048860 
-4.780500 16.468270 -3.567790 -25.710070 59.173990 -45.232523 -15.568522 15.149617 2.139855 8.858690 0.475995 1.087971 10.663301 4.640265 36.371951 0.493843 6.663190 2.344444 0.202280 -0.032410 0.114430 17.627792 -10.055691 3.940431 -23.798295 1.515990 -38.701126 -23.242454 -0.389097 9.533410 -0.396257 -2.781669 3.218068 -0.209060 0.030760 0.213530 -3.320159 -3.334760 -8.187546 20.403286 -8.266164 44.825321 -5.872212 -1.222168 13.204163 3.794431 1.872315 -24.391749 0.890779 -14.888254 40.455030 6.591220 -17.642370 -18.338920 -9.558788 -29.656757 14.821174 -2.795396 5.789820 0.359078 6.069480 3.300158 -0.543996 -3.750047 2.546549 0.595840 -0.258300 0.251600 0.144220 -0.032749 34.202183 12.037597 1.693076 17.209712 -1.949956 -8.552433 -6.975273 0.584597 3.255515 -0.692760 0.023230 0.143620 0.010560 0.032970 
-4.733000 16.408290 -3.586490 -24.985956 57.270785 -43.890187 -15.581168 14.997921 2.111929 9.287101 -0.645321 -0.093907 9.163192 5.252566 39.706450 0.493011 7.178239 2.144202 0.190390 -0.052320 0.148450 17.669738 -9.881371 3.939205 -24.933551 -0.003620 -38.046807 -23.818577 -1.126022 6.472070 -0.443636 -2.978567 3.136620 -0.197520 0.027950 0.211510 -3.210806 -3.585904 -8.198432 19.347633 -8.646772 45.962330 -5.232659 -1.935296 12.051636 3.620348 2.692683 -22.816849 2.712710 -14.302507 37.098255 6.252110 -15.033540 -20.466860 -8.731601 -27.363084 14.240662 -3.010138 6.941214 0.250090 5.706844 2.132527 -0.589003 -3.758506 2.518191 0.645970 -0.246880 0.255980 0.108370 -0.864948 30.262528 12.999836 3.259858 13.872809 -0.850661 -3.097542 -10.287721 0.684275 3.203731 -0.525719 -0.025340 0.166590 0.037430 -0.020240 
